<svg width="49" height="36" viewBox="0 0 49 36" fill="none" xmlns="http://www.w3.org/2000/svg">
<path d="M1 11C1 9.14999 1.10002 9 2.90002 8.55C3.95002 8.25 6.40002 6.8 8.40002 5.3C13.5 1.45 15.35 0.85 21.6 1.1C27.15 1.3 26.3 0.999988 35 5.89999C38.35 7.79999 39.8 7.89999 42.2 6.24999C43.4 5.44999 44.75 4.99999 46 4.99999C48 4.99999 48 4.99999 48 6.89999C48 10.2 44.85 11.95 38.75 11.95C34.95 12 32.65 11.2 28.75 8.49999C24.75 5.74999 20.4 4.79999 17.2 5.99999C16.45 6.29999 14.45 7.55 12.8 8.85C8.79999 11.85 6.25002 13 3.40002 13H1V11Z" fill="white"/>
<path d="M3.84998 34.6998C3.09998 34.2998 2.25 33.3998 2 32.6998C1.7 31.9998 1.5 27.2998 1.5 22.1998C1.5 16.3998 1.3 12.9998 1 12.9998C0.75 12.9998 0.5 12.0998 0.5 10.9998C0.5 9.34981 0.65 8.99981 1.5 8.99981C2.05 8.99981 2.5 8.79982 2.5 8.59982C2.5 8.34982 3.4 7.84981 4.5 7.49981C5.6 7.14981 6.5 6.6498 6.5 6.3998C6.5 6.1998 6.95 5.99981 7.5 5.99981C8.05 5.99981 8.5 5.64981 8.5 5.24981C8.5 4.79981 8.89998 4.2998 9.34998 4.1498C9.79998 3.9498 10.55 3.44981 11.05 2.94981C12.75 1.24981 16.8 0.349816 21.65 0.599816C24.55 0.749816 26.25 1.0498 26.4 1.3998C26.5 1.7498 27.2 1.99981 28 1.99981C28.8 1.99981 29.75 2.34981 30.2 2.74981C30.6 3.14981 31.15 3.49981 31.45 3.49981C31.75 3.49981 32 3.94981 32 4.49981C32 5.24981 32.35 5.49981 33.45 5.49981C34.25 5.49981 35.25 5.84981 35.7 6.24981C36.1 6.64981 36.9 6.99981 37.45 6.99981C38.15 6.99981 38.5 7.29981 38.5 7.99981C38.5 9.79981 36.85 9.2498 29.4 4.8998C25.55 2.6498 21.5 1.84981 17.9 2.49981C15.25 3.04981 13.45 3.99981 8.09998 7.74981C6.34998 8.99981 4.40001 9.99981 3.70001 9.99981C2.85001 9.99981 2.5 10.2498 2.5 10.9998C2.5 11.8498 2.70002 11.9498 3.90002 11.6998C5.95002 11.1998 7.95 10.0998 11.25 7.59982C15.65 4.29982 17.05 3.8498 21.6 4.1498C25.6 4.3998 26.4 4.74981 32.45 8.54981C34.9 10.0998 35.5 10.2498 38.95 10.2498C42.15 10.2498 43.05 10.0498 44.6 8.99981C45.65 8.29981 46.5 7.4498 46.5 7.1498C46.5 6.2498 47.35 6.34981 47.7 7.29981C48.25 8.74981 48.05 30.7498 47.45 32.4498C46.4 35.4498 46.1 35.4998 24.65 35.4998C8.30002 35.4498 5.04998 35.3498 3.84998 34.6998Z" fill="#FF6055"/>
</svg>
