<svg width="45" height="38" viewBox="0 0 45 38" fill="none" xmlns="http://www.w3.org/2000/svg">
<path d="M4.14826 37.4497C0.998256 36.5497 0.89825 36.1497 0.79825 19.7997C0.74825 8.44968 0.898268 4.94968 1.34827 4.79968C2.04827 4.49968 2.44827 4.99968 2.94827 6.69968C3.69827 9.24968 7.79827 15.3497 9.94827 17.1497C13.1983 19.7997 15.4483 20.3497 19.2983 19.3497C21.0483 18.8997 22.9983 17.9997 23.7483 17.2997C24.5483 16.5997 25.5983 15.9997 26.1983 15.9997C27.0483 15.9997 27.0983 15.8997 26.4983 15.4997C25.8983 15.0997 25.9483 14.9997 26.8983 14.9997C27.4983 14.9997 27.9983 14.6997 27.9983 14.3497C27.9983 12.8997 29.5483 10.5997 30.7483 10.2997C31.6483 10.0497 31.9983 9.64968 31.9983 8.74968C31.9983 6.94968 33.7483 5.99968 37.0983 5.99968C38.6983 5.99968 40.4983 6.24968 41.1483 6.59968C41.7483 6.89968 42.5983 7.29968 42.9983 7.49968C43.6483 7.79968 43.7483 9.84967 43.7483 21.1497C43.7483 33.8497 43.6983 34.4997 42.6983 35.8497C42.0983 36.5997 40.9983 37.3997 40.1983 37.5497C37.8983 38.0497 5.89826 37.9497 4.14826 37.4497Z" fill="#EDECF7"/>
<path d="M13.2515 17.25C10.1515 15.85 8.30146 13.55 4.95146 7.05C3.35146 3.95 2.40144 2.7 1.40144 2.3C-0.0485553 1.75 -0.498537 0.5 0.701463 0.5C2.20146 0.5 4.65144 3.30001 6.55144 7.10001C9.10144 12.35 11.0014 14.65 13.8014 16C18.1014 18 21.7014 16.2 26.6514 9.7C31.2514 3.6 34.3014 1.95 39.2514 3C41.8514 3.55 44.5515 5.1 43.9515 5.7C43.8015 5.85 42.5015 5.55 41.1015 5C36.0015 3.05 33.3015 3.9 29.4515 8.55C25.2015 13.75 21.3014 17.3 19.5514 17.65C17.0014 18.15 14.9015 18.05 13.2515 17.25Z" fill="#3326AE"/>
</svg>
