<svg width="44" height="36" viewBox="0 0 44 36" fill="none" xmlns="http://www.w3.org/2000/svg">
<path d="M4 34.85C2.05 33.85 1.5 32.2 1.5 26.9C1.5 22.3 1.55 22.05 2.8 21.05C3.55 20.45 4.55 20 5.05 20C5.6 20 6 19.7 6 19.4C6 18.95 6.2 19 6.5 19.5C6.9 20.1 7 20.05 7 19.15C7 18.5 7.14999 18 7.39999 18C7.59999 18 8.14999 17.15 8.64999 16.15C9.14999 15.1 9.90001 13.6 10.35 12.75C10.8 11.95 11.3 10.9 11.5 10.5C11.7 10.1 12.3 9.55 12.9 9.25C13.6 8.95 13.9 8.44999 13.75 7.89999C13.4 6.84999 15.35 4.95001 16.4 5.35001C16.85 5.55001 17.05 5.44999 16.85 5.14999C16.4 4.39999 17.65 4 20.4 4C23.65 4.05 26.1 4.64999 27.55 5.89999C35.35 12.55 36.6 13.25 40.4 13.2H43.5V22.8V32.4L41.95 33.95L40.4 35.5H22.85C9.75001 35.5 4.95 35.35 4 34.85Z" fill="#EDECF7"/>
<path d="M0.802293 19.5505C0.652293 19.3505 1.50229 18.5005 2.75229 17.7505C4.50229 16.6005 5.40229 15.4505 7.30229 11.9005C11.8023 3.45046 14.7023 0.900476 20.0023 0.850476C24.8023 0.800476 26.9523 1.75047 31.8523 5.80047C36.6523 9.80047 38.6523 10.7505 41.3023 10.3005C43.6023 9.85047 43.7023 9.85047 43.9023 10.4505C44.1523 11.1505 40.0523 11.8505 38.1023 11.4505C37.2023 11.2505 35.3023 10.1505 33.8523 9.05047C32.4023 7.90047 30.1523 6.10047 28.8523 5.05047C26.0523 2.85047 23.6523 2.00047 20.3023 2.00047C15.7023 2.00047 12.6023 4.60048 9.00229 11.6005C6.65229 16.0505 4.95229 18.2505 2.95229 19.2505C1.30229 20.1005 1.15229 20.1505 0.802293 19.5505Z" fill="#3326AE"/>
</svg>
