<svg width="21" height="18" viewBox="0 0 21 18" fill="none" xmlns="http://www.w3.org/2000/svg">
<path d="M15.5002 17.2493C15.0002 16.6493 13.6002 16.4993 8.70018 16.4993C0.350177 16.4993 0.50018 16.6493 0.50018 8.3493C0.50018 3.0493 0.650182 2.04929 1.40018 1.39929C2.60018 0.399288 19.3502 0.449306 20.0002 1.44931C20.3502 2.09931 20.1502 16.0493 19.7502 17.3993C19.4502 18.2493 16.2502 18.1493 15.5002 17.2493ZM18.9002 10.1493C18.8002 3.59929 18.6002 4.34929 18.4002 12.1493C18.3002 14.5493 18.4002 16.4993 18.6502 16.4993C18.8502 16.4993 18.9502 13.6493 18.9002 10.1493ZM13.9002 2.14929C12.3002 2.04929 9.60018 2.04929 7.90018 2.14929C6.15018 2.24929 7.45018 2.29928 10.7502 2.29928C14.0502 2.29928 15.4502 2.24929 13.9002 2.14929Z" fill="#8880CF"/>
<path d="M7.75101 10.9998C6.35101 10.4498 5.30101 9.14978 5.95101 8.79978C6.20101 8.59978 7.25101 8.8498 8.25101 9.3498C10.051 10.1998 10.151 10.1998 13.651 8.74979C14.951 8.19979 14.751 9.7498 13.401 10.6998C12.201 11.5498 9.40101 11.6998 7.75101 10.9998Z" fill="#3326AE"/>
</svg>
