<svg width="15" height="15" viewBox="0 0 15 15" fill="none" xmlns="http://www.w3.org/2000/svg">
<path d="M5.75119 14.65C4.15119 14.25 2.05119 12.55 1.25119 11C0.201195 8.95 0.301195 5.55002 1.50119 3.65002C2.60119 1.80002 5.80117 0 7.85117 0C11.7012 0.1 15.0012 3.55001 15.0012 7.45001C15.0012 12.4 10.5512 15.85 5.75119 14.65ZM11.5012 8.5C11.5012 8.25 11.2012 7.95001 10.9012 7.95001C10.5512 7.90001 9.90119 7.84999 9.50119 7.79999C9.00119 7.74999 8.65119 6.99998 8.50119 5.34998C8.35119 4.04998 8.05119 2.89998 7.75119 2.84998C7.20119 2.74998 6.75121 7.14999 7.20121 8.29999C7.50121 9.09999 11.5012 9.3 11.5012 8.5Z" fill="#00C3F8"/>
</svg>
