<svg width="66" height="40" viewBox="0 0 66 40" fill="none" xmlns="http://www.w3.org/2000/svg">
<path d="M34.0281 35.9728C20.1931 36.7429 10.7126 22.2473 16.9632 9.88084C23.2138 -2.48566 40.5075 -3.44827 48.0919 8.14814L65.1569 34.24L34.0281 35.9728Z" fill="#3326AE"/>
<path d="M34.0281 35.9728C20.1931 36.7429 10.7126 22.2473 16.9632 9.88084C23.2138 -2.48566 40.5075 -3.44827 48.0919 8.14814L65.1569 34.24L34.0281 35.9728Z" fill="#D6D3EF"/>
<path d="M19.0281 39.9728C5.19312 40.7429 -4.28739 26.2473 1.96319 13.8808C8.21376 1.51434 25.5075 0.551728 33.0919 12.1481L50.1569 38.24L19.0281 39.9728Z" fill="#3326AE"/>
<path d="M19.0281 39.9728C5.19312 40.7429 -4.28739 26.2473 1.96319 13.8808C8.21376 1.51434 25.5075 0.551728 33.0919 12.1481L50.1569 38.24L19.0281 39.9728Z" fill="#3326AE"/>
</svg>
