<svg width="15" height="15" viewBox="0 0 15 15" fill="none" xmlns="http://www.w3.org/2000/svg">
<path d="M4.00268 13.8997C-2.29732 10.6497 -0.797325 1.54964 6.25268 0.199638C8.35268 -0.200362 11.7527 1.2496 13.1027 3.0996C14.6027 5.1996 14.8027 8.79963 13.6027 10.9996C12.6527 12.7996 9.15268 14.9996 7.25268 14.9996C6.70268 14.9996 5.20268 14.4997 4.00268 13.8997ZM8.00268 9.24963C9.10268 8.54963 10.0027 7.74963 10.0027 7.49963C10.0027 6.79963 6.05268 4.39963 5.50268 4.74963C4.95268 5.09963 4.80265 9.64965 5.35265 10.1497C5.80265 10.6497 5.80268 10.6496 8.00268 9.24963Z" fill="#3326AE"/>
</svg>
