<svg width="15" height="15" viewBox="0 0 15 15" fill="none" xmlns="http://www.w3.org/2000/svg">
<path d="M3.25077 14.5C3.10077 14.2 3.10076 13 3.30076 11.75C3.60076 9.70001 3.50076 9.35003 2.05076 7.90003C1.20076 7.00003 0.550795 6.05001 0.650795 5.75001C0.750795 5.50001 1.85075 5.04999 3.10075 4.84999C5.00075 4.49999 5.40078 4.20001 5.95078 2.75001C6.25078 1.85001 6.85077 0.85001 7.25077 0.50001C7.85077 9.95398e-06 8.15075 0.20001 8.85075 1.50001C10.4007 4.30001 10.7508 4.54999 12.9008 4.84999C15.4508 5.19999 15.6008 6.05 13.4508 8.05C12.0008 9.4 11.9008 9.70001 12.2008 11.75C12.7008 14.85 12.3508 15.15 9.80076 13.95L7.70078 12.9L5.60075 13.95C4.35075 14.6 3.45077 14.8 3.25077 14.5Z" fill="#FF392B"/>
</svg>
