<svg width="15" height="6" viewBox="0 0 15 6" fill="none" xmlns="http://www.w3.org/2000/svg">
<path d="M0 4.25C0 3.25 0.25 3 1.25 3C2.25 3 2.5 3.25 2.5 4.25C2.5 5.25 2.25 5.5 1.25 5.5C0.25 5.5 0 5.25 0 4.25Z" fill="#FF0000"/>
<path d="M6 4.25C6 3.25 6.25 3 7.25 3C8.25 3 8.5 3.25 8.5 4.25C8.5 5.25 8.25 5.5 7.25 5.5C6.25 5.5 6 5.25 6 4.25Z" fill="#FF0000"/>
<path d="M12 4.25C12 3.25 12.25 3 13.25 3C14.25 3 14.5 3.25 14.5 4.25C14.5 5.25 14.25 5.5 13.25 5.5C12.25 5.5 12 5.25 12 4.25Z" fill="#FF0000"/>
<path d="M3 1.25C3 0.25 3.25 0 4.25 0C5.25 0 5.5 0.25 5.5 1.25C5.5 2.25 5.25 2.5 4.25 2.5C3.25 2.5 3 2.25 3 1.25Z" fill="#FF0000"/>
<path d="M9 1.25C9 0.25 9.25 0 10.25 0C11.25 0 11.5 0.25 11.5 1.25C11.5 2.25 11.25 2.5 10.25 2.5C9.25 2.5 9 2.25 9 1.25Z" fill="#FF0000"/>
</svg>
