<svg width="191" height="121" viewBox="0 0 191 121" fill="none" xmlns="http://www.w3.org/2000/svg">
<rect x="12" y="6" width="178" height="99" fill="white"/>
<path d="M106.111 119.937C105.461 119.837 104.961 119.337 104.961 118.887C104.961 116.937 103.411 104.837 102.461 99.7869C100.611 89.2869 96.9109 78.3869 92.5609 70.5369C87.6109 61.6369 81.3609 54.9869 71.9609 48.7369C66.2609 44.8869 65.261 43.5369 67.861 43.1369L69.2109 42.9369L67.861 42.8369C67.061 42.8369 66.4609 42.5369 66.4609 42.2369C66.4609 41.5869 67.7109 41.6869 78.2109 42.9869C94.3609 45.0369 111.361 44.3369 131.461 40.7869C132.961 40.5369 138.011 40.0369 142.661 39.7369C164.911 38.2869 180.061 42.7369 188.211 53.1369L190.461 56.0369V82.0369V108.037L189.011 111.037C187.311 114.637 184.611 117.337 181.211 118.887L178.711 120.037L142.961 120.087C123.311 120.137 106.711 120.087 106.111 119.937ZM157.461 96.2369C158.611 91.9869 158.611 91.7869 158.011 91.7869C157.761 91.7869 157.111 93.6869 156.511 96.0369C155.311 100.887 155.261 101.187 156.011 100.437C156.311 100.137 156.961 98.2369 157.461 96.2369ZM146.261 98.8869C147.161 98.3369 147.561 96.3369 147.261 94.4869C147.011 93.2369 146.611 92.7369 145.661 92.4869C143.911 92.0369 142.961 93.0869 142.961 95.4369C142.961 98.2369 144.611 99.9869 146.261 98.8869ZM150.961 97.3869C151.011 96.6369 151.311 95.4869 151.711 94.7869C152.861 92.7369 152.661 92.2869 150.461 92.2869C148.961 92.2869 148.461 92.4869 148.461 93.0869C148.461 93.6369 148.711 93.7869 149.261 93.5869C150.611 93.0869 150.861 93.6869 150.111 95.8369C149.411 97.9869 149.561 99.5869 150.461 99.0369C150.711 98.8869 150.961 98.1369 150.961 97.3869ZM165.861 98.4369C165.961 98.0369 165.611 97.7869 165.011 97.7869C163.761 97.7869 163.661 97.1369 164.711 96.2869C165.661 95.4869 165.661 93.5869 164.761 92.7869C163.811 92.0369 161.861 92.3369 161.561 93.2369C161.411 93.7369 161.661 93.8369 162.661 93.5869C163.761 93.2869 163.961 93.4369 163.961 94.4369C163.961 95.0869 163.411 96.1369 162.711 96.7869C161.111 98.2869 161.161 98.6869 162.861 98.9369C164.861 99.2369 165.611 99.1369 165.861 98.4369ZM170.711 98.3369C171.211 97.4869 170.361 92.2869 169.711 92.2869C169.011 92.2869 166.461 95.7369 166.461 96.6869C166.461 97.0369 167.011 97.2869 167.661 97.2869C168.311 97.2869 168.961 97.6369 169.161 98.0369C169.461 98.8869 170.261 99.0369 170.711 98.3369ZM148.661 67.1869C149.561 65.8869 149.711 63.1869 148.961 61.7369C148.561 61.0869 147.911 60.7869 146.711 60.7869C145.261 60.7869 144.911 60.9869 144.661 62.1369C144.211 63.8369 144.961 64.9869 146.661 65.1869C147.361 65.2869 147.961 65.6369 147.961 66.0369C147.961 66.8369 146.711 67.3369 145.711 66.9869C145.261 66.7869 144.961 66.9869 144.961 67.4869C144.961 68.7369 147.761 68.5369 148.661 67.1869ZM155.261 67.8869C155.861 67.5369 156.111 66.3369 156.011 64.6869C155.961 64.1869 155.461 63.7869 154.611 63.6869C153.761 63.5869 153.161 63.1869 153.061 62.6869C152.911 61.9869 153.211 61.7869 154.411 61.7869C155.261 61.7869 155.961 61.5369 155.961 61.2369C155.961 60.9369 155.111 60.7869 153.861 60.8869C151.811 61.0369 151.761 61.0869 151.711 62.7869C151.711 64.2869 151.911 64.5369 152.961 64.6869C154.711 64.9369 155.261 65.5869 154.511 66.4869C154.061 66.9869 153.411 67.1369 152.411 66.9369C150.961 66.6869 150.311 67.4369 151.611 67.9369C152.561 68.3369 154.661 68.3369 155.261 67.8869ZM162.861 66.9869C163.211 66.2869 163.311 65.3869 163.061 64.8869C162.811 64.4369 162.661 63.3869 162.711 62.5869C162.811 59.8369 160.561 60.6869 158.611 64.1869C157.661 65.8369 157.811 66.2869 159.411 66.2869C160.411 66.2869 160.911 66.5869 161.111 67.2869C161.461 68.6369 162.161 68.5369 162.861 66.9869ZM169.411 67.5869C169.761 67.1869 169.961 66.2369 169.861 65.4369C169.711 64.2369 169.461 64.0369 168.061 63.8869C166.811 63.7369 166.461 63.5369 166.661 62.9369C166.811 62.5369 166.961 62.0869 166.961 61.9869C166.961 61.8869 167.661 61.7869 168.461 61.7869C169.311 61.7869 169.961 61.5869 169.961 61.2869C169.961 61.0369 169.211 60.7869 168.261 60.7869C166.161 60.7869 164.961 62.2369 164.961 64.7369C164.961 67.6369 167.861 69.4869 169.411 67.5869ZM104.161 64.9869C104.611 64.8369 104.961 64.2869 104.961 63.7869C104.961 62.7869 103.811 62.1869 102.711 62.5869C101.811 62.9369 101.711 64.5869 102.611 64.9369C102.911 65.0869 103.261 65.2369 103.311 65.2369C103.361 65.2869 103.711 65.1369 104.161 64.9869ZM112.211 63.7869C112.211 62.7869 111.961 62.5369 110.961 62.5369C109.561 62.5369 108.911 64.1369 110.061 64.8369C111.211 65.5869 112.211 65.0869 112.211 63.7869ZM119.161 64.9869C120.061 64.6369 120.261 63.0369 119.461 62.5369C119.161 62.3869 118.511 62.3869 117.961 62.5369C116.861 62.8869 116.611 64.5369 117.611 64.9369C117.911 65.0869 118.261 65.2369 118.311 65.2369C118.361 65.2869 118.711 65.1369 119.161 64.9869ZM127.211 63.7869C127.211 62.8869 126.911 62.4869 126.061 62.3869C124.861 62.1869 124.161 63.2869 124.661 64.5869C124.811 65.0369 125.411 65.2869 126.061 65.1869C126.911 65.0869 127.211 64.6869 127.211 63.7869ZM93.861 45.4369C92.811 45.3369 91.011 45.3369 89.861 45.4369C88.661 45.5369 89.5109 45.6369 91.7109 45.6369C93.9109 45.6369 94.861 45.5369 93.861 45.4369ZM103.611 45.4369C102.961 45.3369 101.861 45.3369 101.111 45.4369C100.311 45.5369 100.861 45.6369 102.211 45.6369C103.611 45.6369 104.211 45.5369 103.611 45.4369ZM84.611 44.9369C83.961 44.8369 82.961 44.8369 82.361 44.9369C81.711 45.0369 82.2109 45.1369 83.4609 45.1369C84.7109 45.1369 85.211 45.0369 84.611 44.9369ZM117.361 44.4369C116.861 44.3369 116.061 44.3369 115.611 44.4369C115.111 44.5869 115.511 44.6869 116.461 44.6869C117.411 44.6869 117.811 44.5869 117.361 44.4369ZM74.861 43.9369C74.361 43.8369 73.561 43.8369 73.111 43.9369C72.611 44.0869 73.0109 44.1869 73.9609 44.1869C74.9109 44.1869 75.311 44.0869 74.861 43.9369ZM146.611 40.9369C145.711 40.8369 144.211 40.8369 143.361 40.9369C142.461 41.0369 143.161 41.1369 144.961 41.1369C146.761 41.1369 147.461 41.0369 146.611 40.9369ZM157.111 40.9369C156.461 40.8369 155.361 40.8369 154.611 40.9369C153.811 41.0369 154.361 41.1369 155.711 41.1369C157.111 41.1369 157.711 41.0369 157.111 40.9369Z" fill="#FFC005"/>
<path d="M189.459 58.2868C189.059 57.3368 186.809 54.5868 184.459 52.2368C181.009 48.7368 179.409 47.5868 175.959 45.8868C163.659 39.9868 151.609 39.3367 125.459 43.1867C104.809 46.2867 89.5094 46.1868 67.9594 42.9868L66.2094 42.7368L68.3094 43.8367C69.5094 44.4867 70.4094 45.0367 70.3094 45.0867C69.7594 45.5367 63.6094 43.4867 58.9594 41.1867C55.8094 39.6367 50.9095 37.5368 48.1595 36.5368C43.8595 34.9868 43.1094 34.5368 43.3094 33.7368C43.4594 33.2368 43.7594 32.9367 44.0094 33.0867C44.2594 33.2367 44.4594 33.0867 44.4594 32.8367C44.4594 32.5367 44.2594 32.2868 43.9594 32.2868C43.6594 32.2868 43.4594 29.8868 43.4594 26.1368C43.4594 17.4868 44.2594 18.0367 30.5594 18.0867C20.0094 18.1367 19.7595 18.1868 18.8595 19.2868C18.3595 19.8868 17.9594 20.9867 17.9594 21.6867V22.9367L16.4594 21.3367C15.6094 20.4867 14.7594 19.7868 14.5594 19.7868C14.3594 19.7868 11.5594 17.0868 8.30942 13.7868C1.50942 6.98675 1.50947 6.88674 5.60947 3.83674C11.1595 -0.21326 2.25946 0.186752 93.4095 0.0367523C145.359 -0.0632477 175.809 0.0367585 177.709 0.386758C182.859 1.18676 186.859 4.28675 189.059 9.03675C190.209 11.4868 190.209 11.8868 190.359 31.0368C190.459 41.7868 190.459 52.6868 190.359 55.2868C190.209 59.9868 190.209 60.0368 189.459 58.2868ZM150.759 28.5368C151.459 26.8868 152.359 24.9367 152.709 24.1867C153.309 22.9867 153.309 22.7868 152.409 22.5368C151.059 22.0868 150.659 22.4868 149.709 25.2868C149.259 26.6868 148.659 27.7868 148.459 27.7868C148.209 27.7868 147.859 26.9367 147.709 25.9367C147.259 23.1867 146.809 22.5368 144.959 22.3868C142.759 22.1368 141.909 23.0868 143.909 23.5368C145.059 23.7868 145.459 24.1367 145.459 24.9367C145.459 25.4867 145.809 27.2868 146.259 28.8868C147.009 31.5368 147.209 31.8367 148.309 31.6867C149.259 31.5867 149.759 30.8868 150.759 28.5368ZM155.409 28.6867C156.359 23.2867 156.309 22.5368 155.259 22.5368C154.509 22.5368 154.159 23.1368 153.659 25.2868C153.109 27.7368 152.759 30.3867 152.909 31.4367C152.959 31.6367 153.359 31.7868 153.909 31.7868C154.659 31.7868 154.959 31.1867 155.409 28.6867ZM162.459 30.7868C163.959 29.2868 163.759 27.5367 161.959 26.4367C160.159 25.3867 160.259 24.5368 162.259 24.5368C163.209 24.5368 163.759 24.2367 163.859 23.6867C164.009 22.9367 163.659 22.7868 161.909 22.7868C158.059 22.7868 156.609 25.7368 159.459 27.7868C161.559 29.2868 161.359 29.9868 158.959 29.6368C157.109 29.3868 156.959 29.4867 156.959 30.5867C156.959 31.6867 157.159 31.7868 159.209 31.7868C160.809 31.7868 161.759 31.4868 162.459 30.7868ZM166.259 31.0368C166.459 30.6368 167.159 30.2868 167.959 30.2868C168.759 30.2868 169.459 30.6368 169.659 31.0368C169.809 31.4368 170.409 31.7868 171.009 31.7868C172.159 31.7868 172.159 31.9368 170.959 26.0368C170.209 22.4368 169.959 22.1368 168.359 22.5368C167.409 22.7868 166.759 23.7368 165.359 27.0368C164.359 29.3368 163.709 31.3368 163.859 31.4868C164.409 32.0868 166.009 31.7868 166.259 31.0368ZM11.1595 13.6867C8.70946 11.0367 7.75945 10.0867 6.70945 9.33674C6.15945 8.93674 7.15945 10.0867 8.95945 11.9367C12.2094 15.3367 13.9095 16.6367 11.1595 13.6867Z" fill="#00C3F8"/>
<path d="M10.9602 119.337C6.6102 117.987 3.21022 115.037 1.36022 111.037L0.210198 108.537L0.060174 61.5371C-0.089826 19.5371 0.0101984 14.2371 0.710198 11.4871C1.1602 9.83712 1.91021 7.83712 2.41021 7.13712L3.26019 5.78711L6.56017 9.38712C8.36017 11.3871 11.6602 14.6371 13.8602 16.5371L17.9102 20.0371L17.9602 27.0871C17.9602 33.2871 18.0602 34.2371 18.8602 34.9371C19.6602 35.6871 21.2602 35.7871 30.8102 35.7871C40.6602 35.7871 41.8602 35.6871 42.5602 34.9371C43.0102 34.4371 43.4102 33.7871 43.5102 33.4371C43.7602 32.6371 52.5602 35.9871 60.8102 40.0371C84.9102 51.8371 95.9602 65.6371 102.51 92.0371C104.21 98.7371 104.96 103.887 106.21 116.687L106.51 119.787L59.3602 119.737C33.4102 119.737 11.6602 119.537 10.9602 119.337ZM21.0102 97.2871C21.5102 97.2871 22.0602 97.7371 22.2102 98.2871C22.5602 99.3371 23.2102 99.5871 23.6602 98.8871C23.9602 98.3871 22.1102 92.7371 21.4602 92.0871C20.7102 91.3371 19.8602 92.4371 18.9102 95.6371C17.9602 98.6871 18.1602 100.137 19.3602 98.3871C19.7602 97.7871 20.5102 97.2871 21.0102 97.2871ZM26.0602 95.9371C25.8602 92.0371 25.7102 91.2871 24.9602 91.2871C24.4102 91.2871 24.2602 98.3871 24.8102 98.9371C25.8602 100.037 26.2602 99.0871 26.0602 95.9371ZM33.4602 98.2371C33.8602 97.6371 34.0102 97.6871 34.6102 98.4871C35.0102 99.0371 35.5602 99.2871 35.9102 99.0871C36.3602 98.7871 36.3102 98.4371 35.6602 97.7371C34.9102 96.8871 34.9102 96.5871 35.4602 95.5371C36.2602 94.0371 35.6602 93.1371 34.7102 94.4371C34.1602 95.1871 34.0102 95.1871 33.4602 94.5371C32.6602 93.5871 31.9602 93.5871 31.9602 94.5371C31.9602 94.9371 32.2102 95.2871 32.4602 95.2871C33.1602 95.2871 33.0602 97.0871 32.3602 97.6871C31.6102 98.2371 28.4602 97.8871 28.4602 97.2371C28.4602 96.9871 29.1602 96.7871 29.9602 96.7871C31.5602 96.7871 31.7602 96.3371 30.9602 94.7371C30.3602 93.6871 28.4602 93.4871 27.5602 94.3871C26.7102 95.2371 26.8102 97.5871 27.7102 98.4871C28.7102 99.4371 32.8602 99.2871 33.4602 98.2371ZM43.1602 98.4871C44.4102 97.2871 44.1102 96.3371 42.2102 95.2371C40.3102 94.0871 40.3602 93.0371 42.2602 93.4871C43.1102 93.7371 43.4602 93.5871 43.4602 93.0871C43.4602 92.0371 41.4102 91.7371 40.1102 92.5871C38.5102 93.6371 38.6602 94.6371 40.7102 95.8371C41.6602 96.4371 42.4602 97.1371 42.4602 97.3871C42.4602 97.7371 41.7602 97.7871 40.7102 97.6371C39.4102 97.4371 38.9602 97.5371 38.9602 98.0371C38.9602 99.2871 42.0602 99.6371 43.1602 98.4871ZM46.5602 96.7871C46.7602 94.5371 47.6602 94.7371 47.9602 97.0871C48.3102 99.7871 49.3602 99.8371 49.5602 97.1871C49.7602 94.5871 50.6102 94.5371 50.9602 97.0871C51.3602 99.8871 52.4602 99.8871 52.4602 97.0871C52.4602 95.8371 52.1602 94.6871 51.8602 94.4371C51.5102 94.2371 49.8102 94.0371 48.1102 93.9871L44.9602 93.8871V96.2871C44.9602 99.8871 46.2102 100.287 46.5602 96.7871ZM55.0602 96.7371C55.2102 94.1871 54.9102 93.4371 53.9602 94.0371C53.1602 94.5371 53.3102 99.2871 54.1602 99.2871C54.6602 99.2871 54.9102 98.4871 55.0602 96.7371ZM59.2102 98.7871C59.3602 98.4871 59.1602 98.1371 58.7602 97.9871C57.7102 97.5871 57.7602 95.4371 58.8602 94.8371C59.6602 94.3871 59.6602 94.3371 58.8602 94.0371C58.3602 93.8371 57.9602 93.3871 57.9602 92.9871C57.9602 92.0371 57.1102 92.0871 56.5602 93.1371C56.0102 94.0871 56.3602 97.7371 57.1102 98.6871C57.6602 99.4371 58.7602 99.4871 59.2102 98.7871ZM61.5602 96.7871C61.7602 94.5371 62.6602 94.7371 62.9602 97.0871C63.3102 99.8371 64.4602 99.8871 64.4602 97.1871C64.4602 94.5371 63.8602 93.5371 62.5602 93.8871C61.7102 94.1371 61.5102 93.9371 61.3602 92.8371C61.2602 92.1371 61.0102 91.5371 60.7102 91.5371C60.1602 91.5371 59.7602 97.4871 60.2102 98.6871C60.6602 99.8371 61.3602 98.7871 61.5602 96.7871ZM54.9602 92.5871C54.9602 92.1871 54.7602 91.7371 54.5102 91.5371C53.9102 91.1871 53.3102 92.1371 53.7102 92.7871C54.1602 93.5371 54.9602 93.3871 54.9602 92.5871ZM20.7102 63.7871C20.7102 62.8871 20.4102 62.4871 19.5602 62.3871C18.3602 62.1871 17.6602 63.2871 18.1602 64.5871C18.3102 65.0371 18.9102 65.2871 19.5602 65.1871C20.4102 65.0871 20.7102 64.6871 20.7102 63.7871ZM28.2102 63.7871C28.2102 62.8871 27.9102 62.4871 27.0602 62.3871C25.8602 62.1871 25.1602 63.2871 25.6602 64.5871C25.8102 65.0371 26.4102 65.2871 27.0602 65.1871C27.9102 65.0871 28.2102 64.6871 28.2102 63.7871ZM35.7102 63.7871C35.7102 62.8871 35.4102 62.4871 34.5602 62.3871C33.3602 62.1871 32.6602 63.2871 33.1602 64.5871C33.3102 65.0371 33.9102 65.2871 34.5602 65.1871C35.4102 65.0871 35.7102 64.6871 35.7102 63.7871ZM43.2102 63.7871C43.2102 62.8871 42.9102 62.4871 42.0602 62.3871C40.8602 62.1871 40.1602 63.2871 40.6602 64.5871C40.8102 65.0371 41.4102 65.2871 42.0602 65.1871C42.9102 65.0871 43.2102 64.6871 43.2102 63.7871ZM62.7102 63.7871C62.7102 62.8871 62.4102 62.4871 61.5602 62.3871C60.9102 62.2871 60.3102 62.5371 60.1602 62.9871C59.6602 64.2871 60.3602 65.3871 61.5602 65.1871C62.4102 65.0871 62.7102 64.6871 62.7102 63.7871ZM70.2102 63.7871C70.2102 62.8871 69.9102 62.4871 69.0602 62.3871C67.8602 62.1871 67.1602 63.2871 67.6602 64.5871C67.8102 65.0371 68.4102 65.2871 69.0602 65.1871C69.9102 65.0871 70.2102 64.6871 70.2102 63.7871ZM77.7102 63.7871C77.7102 62.8871 77.4102 62.4871 76.5602 62.3871C75.3602 62.1871 74.6602 63.2871 75.1602 64.5871C75.3102 65.0371 75.9102 65.2871 76.5602 65.1871C77.4102 65.0871 77.7102 64.6871 77.7102 63.7871ZM85.2102 63.7871C85.2102 62.8871 84.9102 62.4871 84.0602 62.3871C83.4102 62.2871 82.8102 62.5371 82.6602 62.9871C82.1602 64.2871 82.8602 65.3871 84.0602 65.1871C84.9102 65.0871 85.2102 64.6871 85.2102 63.7871Z" fill="#3326AE"/>
<rect x="99" y="48" width="59" height="25" fill="#FFC005"/>
<rect x="116" y="80" width="59" height="25" fill="#FFC005"/>
<rect x="119" y="53" width="59" height="25" fill="#FFC005"/>
<rect x="13" y="59" width="73" height="27" fill="#3326AE"/>
<rect x="12" y="84" width="73" height="27" fill="#3326AE"/>
</svg>
